<?xml version="1.0" standalone="no"?>
<!DOCTYPE svg PUBLIC "-//W3C//DTD SVG 20010904//EN"
 "http://www.w3.org/TR/2001/REC-SVG-20010904/DTD/svg10.dtd">
<svg version="1.0" xmlns="http://www.w3.org/2000/svg"
 width="220.000000pt" height="256.000000pt" viewBox="0 0 220.000000 256.000000"
 preserveAspectRatio="xMidYMid meet">

<g transform="translate(0.000000,256.000000) scale(0.100000,-0.100000)"
fill="#000000" stroke="none">
<path d="M0 1280 l0 -1280 243 0 242 0 3 74 3 75 -32 3 c-28 3 -61 30 -49 41
3 2 47 7 98 11 93 7 93 7 90 -16 -2 -15 -13 -25 -35 -32 l-33 -9 0 -73 0 -74
50 0 50 0 0 35 c0 23 -6 38 -15 41 -10 4 -12 10 -6 18 5 6 12 31 16 56 4 25 9
49 12 53 10 17 33 -17 33 -50 0 -30 3 -34 23 -31 18 2 22 9 22 38 0 28 4 35
20 35 16 0 21 -8 23 -35 2 -19 8 -41 14 -47 7 -9 7 -17 0 -26 -6 -6 -13 -29
-17 -49 l-7 -38 41 0 c46 0 48 2 24 26 -21 21 -30 122 -13 153 6 12 18 21 27
19 12 -2 16 -17 18 -63 1 -68 18 -107 40 -99 11 5 15 23 15 74 0 47 4 71 15
80 23 19 35 3 35 -48 l1 -47 15 27 c19 37 86 70 130 66 40 -4 50 -22 14 -26
-53 -6 -73 -14 -96 -39 -27 -29 -32 -80 -9 -89 19 -8 60 19 76 47 10 20 9 21
-31 14 -33 -6 -41 -4 -38 6 6 19 47 38 89 41 33 3 34 2 31 -32 -3 -41 -43 -87
-87 -99 -22 -7 -2 -9 77 -10 l107 -1 -5 100 c-3 83 -2 100 10 100 23 0 30 -19
36 -95 l5 -70 41 3 c34 3 42 0 51 -20 10 -19 11 -10 11 49 -1 42 4 78 11 86 9
12 8 16 -5 21 -13 5 -14 9 -4 21 7 8 18 15 26 15 17 0 29 -20 17 -29 -5 -4 -5
-40 1 -94 9 -76 12 -87 29 -87 17 0 18 5 13 38 -4 20 -9 55 -12 77 -10 80 -10
90 6 86 8 -2 42 -5 75 -8 66 -6 81 -13 71 -38 -5 -14 -15 -15 -61 -10 -47 6
-55 5 -55 -9 0 -13 11 -16 55 -16 48 0 55 -2 55 -20 0 -17 -7 -20 -51 -20 -43
0 -50 -3 -45 -16 3 -9 6 -27 6 -40 0 -23 3 -24 63 -24 l63 0 -7 73 c-8 84 -4
90 73 106 65 14 88 14 88 -2 0 -7 -22 -19 -49 -26 -27 -7 -57 -19 -68 -27 -15
-13 -15 -15 -2 -11 104 33 129 33 129 3 0 -10 -19 -19 -59 -27 -36 -7 -62 -17
-66 -27 -3 -8 -4 -16 -3 -18 2 -1 32 7 66 19 55 19 64 20 72 7 16 -25 7 -43
-30 -56 -30 -11 -3 -13 193 -13 l227 -1 0 1280 0 1280 -1100 0 -1100 0 0
-1280z m1085 1250 c10 -11 28 -20 39 -20 37 0 95 -48 96 -80 0 -9 51 -39 128
-76 176 -85 234 -130 310 -242 35 -51 72 -113 84 -138 30 -68 47 -183 48 -314
0 -163 -12 -205 -114 -390 -19 -36 -36 -68 -36 -72 0 -5 11 -8 24 -8 52 0 73
-17 95 -74 11 -30 42 -95 68 -143 l48 -88 0 -285 0 -285 -747 -3 -747 -2 3 67
c2 38 4 73 5 79 0 6 38 33 83 59 65 38 112 79 240 208 87 89 158 163 158 164
0 2 -7 3 -15 3 -8 0 -59 14 -112 32 -54 17 -102 30 -108 28 -5 -1 -37 -2 -70
-1 -73 2 -89 17 -81 77 3 23 -1 62 -9 89 -31 102 -13 155 67 196 36 19 40 23
34 50 -7 38 19 107 54 139 14 14 37 42 51 62 26 42 54 49 62 18 3 -13 -1 -24
-14 -30 -23 -13 -52 -78 -46 -102 3 -9 1 -18 -4 -20 -6 -2 -11 -17 -13 -33 -3
-26 -7 -30 -35 -30 -36 0 -37 -2 -15 -33 14 -21 14 -22 -6 -22 -31 0 -98 -37
-116 -65 -12 -18 -14 -37 -10 -67 3 -24 9 -77 12 -118 7 -81 18 -107 39 -90 9
7 21 7 40 -2 20 -9 31 -9 46 0 15 10 31 7 85 -13 37 -14 94 -32 128 -41 34 -8
67 -17 74 -19 8 -3 -5 -20 -35 -46 -26 -23 -109 -104 -183 -179 -100 -102
-152 -147 -202 -174 -36 -20 -71 -42 -76 -49 -5 -7 -12 -36 -13 -65 l-4 -52
733 0 733 0 -3 277 -3 278 -52 95 c-28 52 -54 106 -58 120 -13 46 -44 70 -92
70 -24 0 -43 3 -43 7 0 3 31 65 69 137 85 161 107 250 98 391 -13 190 -38 260
-145 410 -48 66 -74 91 -150 142 -51 33 -137 81 -191 104 -55 24 -97 47 -95
51 17 27 -56 88 -104 88 -12 0 -25 7 -29 15 -26 46 -292 -109 -345 -200 -29
-52 -32 -157 -5 -198 16 -25 16 -29 1 -54 -15 -26 -15 -27 0 -8 9 11 20 20 24
20 4 1 21 9 39 18 18 9 54 17 82 17 27 0 53 5 57 12 5 8 0 9 -14 6 -12 -4 -20
-2 -17 2 5 8 41 15 125 24 37 4 140 -33 167 -60 8 -8 19 -14 24 -14 5 0 9 -7
9 -16 0 -8 5 -12 10 -9 6 3 10 0 10 -7 1 -7 9 -31 20 -53 10 -22 15 -42 11
-45 -10 -7 -8 -60 3 -60 5 0 3 -7 -4 -15 -7 -8 -9 -15 -4 -15 4 0 -1 -7 -12
-15 -16 -13 -17 -16 -4 -25 14 -9 12 -10 -17 -10 -4 0 -8 10 -8 23 0 12 -6 22
-13 22 -16 0 -33 26 -25 38 3 5 -1 13 -8 18 -19 12 -29 11 -29 -2 0 -5 4 -8 9
-4 5 3 12 1 15 -4 3 -5 -1 -11 -9 -15 -8 -3 -15 -14 -15 -25 0 -11 -4 -23 -10
-26 -15 -10 -12 -23 9 -34 14 -8 19 -7 18 2 -1 31 4 44 18 44 8 0 15 -5 15
-11 0 -6 5 -4 10 4 8 13 10 13 10 -2 0 -9 -7 -21 -16 -26 -11 -6 -13 -11 -5
-16 6 -4 11 -2 11 5 0 8 3 9 13 0 8 -6 16 -8 20 -5 3 3 3 -3 0 -15 -3 -11 -9
-19 -13 -16 -5 3 5 -23 23 -57 17 -35 34 -65 39 -66 18 -8 -5 -22 -34 -22 -30
0 -31 0 -13 20 16 18 16 20 1 25 -53 17 -51 16 -36 25 10 6 11 10 3 10 -7 0
-16 12 -19 26 -6 23 -8 24 -16 9 -6 -9 -8 -25 -5 -35 3 -13 0 -17 -9 -13 -13
5 -18 17 -15 36 1 5 -3 6 -9 2 -6 -3 -7 0 -4 9 3 9 9 14 12 13 4 -1 8 2 9 7 1
5 7 13 15 18 9 6 1 8 -22 6 -20 -2 -42 -12 -52 -23 -15 -17 -17 -18 -18 -3 0
9 5 20 10 23 6 4 8 10 5 15 -3 5 0 20 7 32 6 13 13 28 14 33 1 6 6 19 10 29 6
15 4 17 -6 11 -10 -6 -11 -2 -7 17 5 19 2 28 -10 32 -19 8 -17 11 -41 -49 -43
-108 -51 -168 -21 -150 5 4 12 0 15 -8 3 -9 16 -14 32 -12 30 3 54 -16 42 -35
-6 -9 -62 -13 -221 -17 -118 -2 -233 -1 -257 2 -38 6 -42 9 -37 28 4 17 2 16
-10 -5 -12 -22 -23 -28 -48 -27 -32 1 -32 1 -6 10 30 11 49 59 80 204 11 55
34 124 49 153 23 43 27 59 19 78 -15 40 -11 159 7 204 25 62 191 180 304 215
60 18 64 18 85 -5z m-642 -912 c21 -15 32 -18 35 -10 2 7 7 12 12 12 8 0 70
-94 70 -106 0 -4 -15 5 -34 19 -33 26 -33 26 -43 5 -9 -20 -10 -19 -30 14 -11
19 -28 47 -38 61 -21 33 -13 34 28 5z m1062 12 c3 -5 2 -10 -3 -10 -15 0 -48
-33 -64 -64 -15 -29 -16 -29 -27 -8 -10 18 -7 26 20 57 30 34 62 45 74 25z
m-569 -36 c27 -21 34 -23 34 -10 0 32 26 15 58 -38 17 -30 32 -57 32 -61 0 -3
-15 5 -33 19 -39 30 -47 32 -47 12 0 -34 -20 -22 -54 33 -50 81 -48 89 10 45z
m314 -14 c-8 -5 -10 -10 -5 -10 6 0 11 -13 11 -30 1 -16 -3 -28 -9 -27 -6 1
-11 -5 -12 -13 0 -8 -11 -17 -24 -18 -14 -2 -34 -10 -46 -18 -12 -8 -25 -11
-28 -7 -7 6 -11 -21 -8 -41 1 -5 -5 -6 -14 -3 -8 4 -15 2 -15 -3 0 -6 5 -10
11 -10 7 0 -1 -10 -16 -22 -20 -15 -30 -18 -33 -10 -7 23 -19 12 -17 -15 3
-46 4 -49 24 -71 10 -12 22 -18 27 -14 4 4 2 -1 -5 -10 -7 -10 -10 -18 -7 -18
4 0 2 -10 -5 -21 -8 -15 -8 -19 0 -15 6 4 11 1 11 -8 0 -29 21 -27 31 3 6 17
15 29 19 26 5 -3 13 3 19 12 10 17 10 17 11 0 0 -26 23 -16 31 14 4 13 7 18 8
12 1 -7 6 -13 12 -13 5 0 8 4 4 9 -3 5 -1 12 4 16 6 3 8 13 5 23 -4 12 0 10
15 -6 18 -21 19 -26 6 -39 -8 -8 -15 -21 -15 -29 0 -8 -4 -12 -10 -9 -5 3 -10
0 -10 -7 0 -10 -3 -9 -9 1 -8 12 -11 9 -17 -13 -3 -15 -12 -25 -18 -23 -6 2
-24 -4 -41 -15 -16 -10 -38 -21 -47 -24 -17 -6 -22 -17 -19 -38 1 -5 -5 -6
-13 -3 -9 4 -20 -1 -26 -11 -11 -16 -11 -16 -6 1 3 11 0 20 -9 23 -10 4 -15
20 -15 50 0 43 -15 61 -22 27 -2 -13 -8 -8 -20 18 -15 31 -21 35 -46 31 -18
-2 -33 2 -41 12 -8 9 -19 16 -26 16 -7 0 -18 6 -24 14 -6 7 -22 11 -36 8 -15
-2 -25 0 -25 7 0 6 0 14 0 19 0 4 9 8 20 8 26 2 30 6 35 36 3 16 -3 32 -16 46
-25 27 -33 28 -19 2 6 -11 7 -20 3 -21 -4 -1 -29 -2 -55 -2 -48 -2 -59 5 -35
20 6 4 12 15 12 23 0 8 6 14 13 12 7 -1 15 5 18 13 4 8 12 15 20 15 17 0 18
22 3 37 -6 6 -8 16 -5 22 5 7 17 0 32 -18 40 -48 121 -82 197 -83 99 -2 169
45 206 140 11 27 19 32 45 32 24 0 27 -3 16 -10z m307 -22 c-3 -7 -5 -2 -5 12
0 14 2 19 5 13 2 -7 2 -19 0 -25z m-39 -63 c-1 -30 -1 -30 -5 -2 -3 18 -10 27
-23 27 -29 0 -34 19 -8 29 27 10 37 -6 36 -54z m-118 -14 c0 -26 -24 -60 -35
-49 -2 2 -2 21 2 41 7 45 33 51 33 8z m111 -48 c-12 -20 -14 -14 -5 12 4 9 9
14 11 11 3 -2 0 -13 -6 -23z m4 -49 c-43 -34 -56 -30 -15 5 19 16 37 27 40 24
3 -3 -8 -16 -25 -29z m-61 20 c-7 -3 -9 -14 -6 -26 9 -37 -58 -74 -85 -47 -18
18 -5 36 23 33 14 -1 22 2 18 8 -7 11 25 38 46 37 8 0 10 -3 4 -5z m-251 -104
c3 -11 2 -18 -3 -15 -4 3 -10 14 -13 25 -3 11 -2 18 3 15 4 -3 10 -14 13 -25z
m-37 -12 c-5 -9 -11 -16 -11 -15 0 1 -6 9 -12 17 -9 12 -7 15 11 15 19 0 21
-3 12 -17z m-448 -252 c40 -21 68 -54 51 -61 -8 -2 -23 -3 -34 -1 -11 3 -27 5
-35 6 -26 1 -61 37 -54 54 8 20 36 20 72 2z m216 -285 c15 -12 50 -6 154 27
18 6 30 7 27 1 -4 -5 -10 -9 -14 -9 -5 0 -40 -18 -79 -41 -44 -26 -69 -46 -66
-54 3 -7 1 -16 -5 -20 -6 -3 -11 -11 -11 -16 0 -6 5 -7 12 -3 7 4 8 3 4 -5
-10 -15 -29 -3 -22 15 3 8 1 14 -4 14 -6 0 -10 7 -10 15 0 8 -6 14 -12 13 -9
-2 -13 15 -13 57 -1 71 6 91 17 48 4 -17 14 -36 22 -42z"/>
<path d="M642 1870 c0 -14 2 -19 5 -12 2 6 2 18 0 25 -3 6 -5 1 -5 -13z"/>
<path d="M622 1791 c-7 -30 -10 -56 -8 -58 7 -8 28 66 24 89 -2 15 -7 4 -16
-31z"/>
<path d="M860 1313 c0 -5 11 -20 25 -33 14 -13 25 -19 25 -13 0 5 -11 20 -25
33 -14 13 -25 19 -25 13z"/>
<path d="M670 40 c0 -36 3 -40 25 -40 20 0 25 5 25 24 0 37 -10 56 -31 56 -15
0 -19 -7 -19 -40z"/>
<path d="M933 30 l-11 -30 46 1 c37 0 42 2 25 9 -12 5 -24 18 -28 29 -9 29
-19 26 -32 -9z"/>
</g>
</svg>
